<svg width="24" height="24" viewBox="0 0 24 24" fill="none" xmlns="http://www.w3.org/2000/svg">
  <path d="M12 8.4C13.99 8.4 15.6 10.01 15.6 12C15.6 13.99 13.99 15.6 12 15.6C10.01 15.6 8.4 13.99 8.4 12C8.4 10.01 10.01 8.4 12 8.4Z" stroke="#111" stroke-width="1.9"/>
  <path d="M19 12C19 11.56 18.96 11.13 18.86 10.72L20.6 9.4L18.6 5.95L16.49 6.59C15.83 6.03 15.07 5.58 14.24 5.28L13.8 3H10.2L9.76 5.28C8.93 5.58 8.17 6.03 7.51 6.59L5.4 5.95L3.4 9.4L5.14 10.72C5.04 11.13 5 11.56 5 12C5 12.44 5.04 12.87 5.14 13.28L3.4 14.6L5.4 18.05L7.51 17.41C8.17 17.97 8.93 18.42 9.76 18.72L10.2 21H13.8L14.24 18.72C15.07 18.42 15.83 17.97 16.49 17.41L18.6 18.05L20.6 14.6L18.86 13.28C18.96 12.87 19 12.44 19 12Z" stroke="#111" stroke-width="1.7" stroke-linejoin="round"/>
</svg>